<?xml version="1.0" encoding="utf-8"?>
<!-- Generator: Adobe Illustrator 21.1.0, SVG Export Plug-In . SVG Version: 6.00 Build 0)  -->
<svg version="1.1" xmlns="http://www.w3.org/2000/svg" xmlns:xlink="http://www.w3.org/1999/xlink" x="0px" y="0px"
	 viewBox="0 0 2702 1180" style="enable-background:new 0 0 2702 1180;" xml:space="preserve">
<style type="text/css">
	.st0{fill:#717171;}
	.st1{fill:#FFFFFF;}
	.st2{fill:#717272;}
</style>
<g id="COLOR_VALUES">
	<g>
		<rect x="-215.7" y="-1262.8" style="fill:none;" width="65.2" height="30.4"/>
		<text transform="matrix(1 0 0 1 -215.6641 -1250.0562)" class="st0" style="font-family:'ClanPro-Book'; font-size:18px;">12px</text>
	</g>
	<g>
		<rect x="-215.7" y="-1184.8" style="fill:none;" width="65.2" height="30.4"/>
		<text transform="matrix(1 0 0 1 -215.6641 -1172.0562)" class="st0" style="font-family:'ClanPro-Book'; font-size:18px;">16px</text>
	</g>
	<g>
		<rect x="-215.7" y="-1094.8" style="fill:none;" width="65.2" height="30.4"/>
		<text transform="matrix(1 0 0 1 -215.6641 -1082.0562)" class="st0" style="font-family:'ClanPro-Book'; font-size:18px;">20px</text>
	</g>
	<g>
		<rect x="-215.7" y="-993.8" style="fill:none;" width="65.2" height="30.4"/>
		<text transform="matrix(1 0 0 1 -215.6641 -981.0561)" class="st0" style="font-family:'ClanPro-Book'; font-size:18px;">24px</text>
	</g>
	<g>
		<rect x="-215.7" y="-880.8" style="fill:none;" width="65.2" height="30.4"/>
		<text transform="matrix(1 0 0 1 -215.6641 -868.0561)" class="st0" style="font-family:'ClanPro-Book'; font-size:18px;">28px</text>
	</g>
	<g>
		<rect x="-215.7" y="-755.8" style="fill:none;" width="65.2" height="30.4"/>
		<text transform="matrix(1 0 0 1 -215.6641 -743.0561)" class="st0" style="font-family:'ClanPro-Book'; font-size:18px;">32px</text>
	</g>
	<g>
		<rect x="-215.7" y="-619.8" style="fill:none;" width="127.4" height="47.9"/>
		<text transform="matrix(1 0 0 1 -215.6641 -607.0561)"><tspan x="0" y="0" class="st0" style="font-family:'ClanPro-Book'; font-size:18px;">Small - </tspan><tspan x="54.2" y="0" class="st0" style="font-family:'ClanPro-Book'; font-size:18px; letter-spacing:13;">	</tspan><tspan x="72" y="0" class="st0" style="font-family:'ClanPro-Book'; font-size:18px;">32px</tspan></text>
	</g>
	<g>
		<rect x="-215.7" y="-483.8" style="fill:none;" width="132.1" height="36.2"/>
		<text transform="matrix(1 0 0 1 -215.6636 -471.0551)" class="st0" style="font-family:'ClanPro-Book'; font-size:18px;">Med - 150px</text>
	</g>
	<g>
		<rect x="-215.7" y="1.4" style="fill:none;" width="132.7" height="39.1"/>
		<text transform="matrix(1 0 0 1 -215.6641 14.1304)" class="st0" style="font-family:'ClanPro-Book'; font-size:18px;">Large - 400px</text>
	</g>
	<g>
		<rect x="25" y="2083.7" class="st1" width="345.4" height="345.4"/>
	</g>
	<g>
		<rect x="579.9" y="2185.9" style="fill:none;" width="1564.1" height="324.2"/>
		<text transform="matrix(1 0 0 1 579.8848 2306.582)" class="st2" style="font-family:'ClanPro-Book'; font-size:169.9901px;">R255 G255 B255</text>
	</g>
	<rect x="25" y="1600" width="345.4" height="345.4"/>
	<g>
		<rect x="579.9" y="1702.1" style="fill:none;" width="1195.6" height="268.7"/>
		<text transform="matrix(1 0 0 1 579.8848 1822.8418)" class="st2" style="font-family:'ClanPro-Book'; font-size:169.9901px;">R0 G0 B0</text>
	</g>
</g>
<g id="Assets">
	<g>
		<path d="M260.2-335.1v82.7c0,27.6-12.2,39.1-40.9,39.1c-28.7,0-40.9-11.5-40.9-39.1v-86.3h-27.6c-2.4,0-3.6,1.2-3.6,3.6v84.1
			c0,46.2,29.4,62.3,72.1,62.3c42.7,0,72.1-16.1,72.1-62.3v-87.7h-27.6C261.5-338.7,260.2-337.5,260.2-335.1z"/>
		<path d="M660.6-314.7c2.3,0,3.3-0.8,4.1-2.4l8-19.8c0.5-1.2,0-1.8-1.2-1.8H560.2c-10.4,0-14.3,3.2-14.3,10.3V-200
			c0,6,3,8.8,11,8.8h103.7c2.3,0,3.3-0.8,4.1-2.4l8-19.8c0.5-1.2,0-1.8-1.2-1.8h-94.9v-26.1c0-9.1,5-13.1,18.4-13.1h41.2
			c2.3,0,3.3-0.8,4.1-2.4l7.7-19c0.5-1.2,0-1.8-1.2-1.8h-70.2v-37H660.6z"/>
		<path d="M464.8-269c12.1-6.3,17.1-18.3,17.1-32.3c0-32.6-26.6-37.4-54-37.4H365c-10.4,0-14.3,3.2-14.3,10.3V-200c0,6,3,8.8,11,8.8
			H439c29.1,0,49.9-11.3,49.9-40.7C488.9-249.7,481.4-264.6,464.8-269z M381.3-315h48.8c16.3,0,20.8,6.1,20.8,18.9
			c0,12.7-4.5,18.9-20.8,18.9h-48.8V-315z M435.8-214.9h-54.5v-27c0-9.1,5-13.1,18.4-13.1h36.1c17.4,0,22.2,6.6,22.2,20.2
			C458-221.3,453.2-214.9,435.8-214.9z"/>
		<path d="M865.4-193.8l-33-56.7c16.4-4.2,29.7-15.1,29.7-42.7c0-35.8-22.2-45.4-58.9-45.4h-63.1c-10.4,0-14.3,3.2-14.3,10.3v133.6
			c0,2.4,1.2,3.6,3.6,3.6h27v-43c0-9.1,5-13.1,18.4-13.1H802l29.9,53.7c0.9,1.5,1.8,2.4,4.1,2.4h28.1
			C866-191.3,866-192.9,865.4-193.8z M807.8-270.3h-51.3V-315h51.3c19.2,0,23.4,7.4,23.4,22.3C831.2-277.6,826.9-270.3,807.8-270.3z
			"/>
	</g>
	<g>
		<path d="M697.3,402.7v220.5c0,73.6-32.6,104.2-109.1,104.2c-76.5,0-109.1-30.6-109.1-104.2V393h-73.6c-6.4,0-9.7,3.2-9.7,9.7
			v224.1c0,123.1,78.5,166.2,192.4,166.2c113.9,0,192.4-43.1,192.4-166.2V393H707C700.6,393,697.3,396.2,697.3,402.7z"/>
		<path d="M1764.9,457c6,0,8.9-2,10.9-6.4l21.3-52.7c1.2-3.2,0-4.8-3.2-4.8h-296.6c-27.8,0-38.2,8.4-38.2,27.4v342.5
			c0,16.1,8,23.3,29.4,23.3h276.5c6,0,8.9-2,10.9-6.4l21.3-52.7c1.2-3.2,0-4.8-3.2-4.8h-253.1v-69.6c0-24.1,13.3-35,49.1-35h109.9
			c6,0,8.8-2,10.9-6.4l20.5-50.7c1.2-3.2,0-4.8-3.2-4.8h-187.1V457H1764.9z"/>
		<path d="M1242.8,578.9c32.2-16.9,45.5-48.7,45.5-86.1c0-86.9-70.8-99.8-144.1-99.8H976.8c-27.8,0-38.2,8.4-38.2,27.4v342.5
			c0,16.1,8,23.3,29.4,23.3h206c77.7,0,133.2-30.2,133.2-108.7C1307.2,630.4,1287,590.6,1242.8,578.9z M1020.2,456.2h130
			c43.5,0,55.5,16.4,55.5,50.3c0,33.9-12.1,50.3-55.5,50.3h-130V456.2z M1165.5,723h-145.3v-72c0-24.1,13.3-35,49.1-35h96.2
			c46.3,0,59.2,17.7,59.2,53.9C1224.7,706.1,1211.8,723,1165.5,723z"/>
		<path d="M2311.1,779.3L2223,628c43.9-11.3,79.3-40.2,79.3-113.9c0-95.4-59.2-121.1-156.9-121.1h-168.2c-27.8,0-38.2,8.4-38.2,27.4
			v356.1c0,6.4,3.2,9.7,9.7,9.7h72V671.5c0-24.1,13.3-35,49.1-35h72.4l79.7,143.3c2.4,4,4.8,6.4,10.9,6.4h74.9
			C2312.7,786.2,2312.7,781.7,2311.1,779.3z M2157.4,575.3h-136.8V456.2h136.8c51.1,0,62.4,19.7,62.4,59.6
			C2219.8,556,2208.5,575.3,2157.4,575.3z"/>
	</g>
	<g>
		<path d="M28.2-1169.6v8.9c0,3-1.3,4.2-4.4,4.2c-3.1,0-4.4-1.2-4.4-4.2v-9.3h-3c-0.3,0-0.4,0.1-0.4,0.4v9c0,5,3.2,6.7,7.8,6.7
			c4.6,0,7.8-1.7,7.8-6.7v-9.4h-3C28.3-1170,28.2-1169.9,28.2-1169.6z"/>
		<path d="M71.2-1167.4c0.2,0,0.4-0.1,0.4-0.3l0.9-2.1c0-0.1,0-0.2-0.1-0.2h-12c-1.1,0-1.5,0.3-1.5,1.1v13.8c0,0.6,0.3,0.9,1.2,0.9
			h11.1c0.2,0,0.4-0.1,0.4-0.3l0.9-2.1c0-0.1,0-0.2-0.1-0.2H62.2v-2.8c0-1,0.5-1.4,2-1.4h4.4c0.2,0,0.4-0.1,0.4-0.3l0.8-2
			c0-0.1,0-0.2-0.1-0.2h-7.5v-4H71.2z"/>
		<path d="M50.1-1162.5c1.3-0.7,1.8-2,1.8-3.5c0-3.5-2.9-4-5.8-4h-6.7c-1.1,0-1.5,0.3-1.5,1.1v13.8c0,0.6,0.3,0.9,1.2,0.9h8.3
			c3.1,0,5.4-1.2,5.4-4.4C52.7-1160.4,51.9-1162,50.1-1162.5z M41.2-1167.5h5.2c1.8,0,2.2,0.7,2.2,2s-0.5,2-2.2,2h-5.2V-1167.5z
			 M47-1156.7h-5.9v-2.9c0-1,0.5-1.4,2-1.4H47c1.9,0,2.4,0.7,2.4,2.2S48.9-1156.7,47-1156.7z"/>
		<path d="M93.2-1154.4l-3.6-6.1c1.8-0.5,3.2-1.6,3.2-4.6c0-3.8-2.4-4.9-6.3-4.9h-6.8c-1.1,0-1.5,0.3-1.5,1.1v14.4
			c0,0.3,0.1,0.4,0.4,0.4h2.9v-4.6c0-1,0.5-1.4,2-1.4h2.9l3.2,5.8c0.1,0.2,0.2,0.3,0.4,0.3h3C93.3-1154.1,93.3-1154.3,93.2-1154.4z
			 M87-1162.7h-5.5v-4.8H87c2.1,0,2.5,0.8,2.5,2.4C89.5-1163.4,89.1-1162.7,87-1162.7z"/>
	</g>
	<g>
		<path d="M35.2-1075.5v11.1c0,3.7-1.6,5.3-5.5,5.3c-3.9,0-5.5-1.5-5.5-5.3v-11.6h-3.7c-0.3,0-0.5,0.2-0.5,0.5v11.3
			c0,6.2,4,8.4,9.7,8.4c5.8,0,9.7-2.2,9.7-8.4v-11.8h-3.7C35.4-1076,35.2-1075.8,35.2-1075.5z"/>
		<path d="M89.2-1072.8c0.3,0,0.4-0.1,0.5-0.3l1.1-2.7c0.1-0.2,0-0.2-0.2-0.2h-15c-1.4,0-1.9,0.4-1.9,1.4v17.3
			c0,0.8,0.4,1.2,1.5,1.2h14c0.3,0,0.4-0.1,0.5-0.3l1.1-2.7c0.1-0.2,0-0.2-0.2-0.2H77.8v-3.5c0-1.2,0.7-1.8,2.5-1.8h5.6
			c0.3,0,0.4-0.1,0.5-0.3l1-2.6c0.1-0.2,0-0.2-0.2-0.2h-9.5v-5H89.2z"/>
		<path d="M62.8-1066.6c1.6-0.9,2.3-2.5,2.3-4.4c0-4.4-3.6-5-7.3-5h-8.5c-1.4,0-1.9,0.4-1.9,1.4v17.3c0,0.8,0.4,1.2,1.5,1.2h10.4
			c3.9,0,6.7-1.5,6.7-5.5C66-1064,65-1066,62.8-1066.6z M51.5-1072.8h6.6c2.2,0,2.8,0.8,2.8,2.5c0,1.7-0.6,2.5-2.8,2.5h-6.6V-1072.8
			z M58.9-1059.3h-7.3v-3.6c0-1.2,0.7-1.8,2.5-1.8h4.9c2.3,0,3,0.9,3,2.7C61.9-1060.2,61.2-1059.3,58.9-1059.3z"/>
		<path d="M116.8-1056.5l-4.5-7.6c2.2-0.6,4-2,4-5.8c0-4.8-3-6.1-7.9-6.1h-8.5c-1.4,0-1.9,0.4-1.9,1.4v18c0,0.3,0.2,0.5,0.5,0.5h3.6
			v-5.8c0-1.2,0.7-1.8,2.5-1.8h3.7l4,7.2c0.1,0.2,0.2,0.3,0.5,0.3h3.8C116.8-1056.1,116.8-1056.4,116.8-1056.5z M109-1066.8h-6.9v-6
			h6.9c2.6,0,3.2,1,3.2,3C112.1-1067.8,111.6-1066.8,109-1066.8z"/>
	</g>
	<g>
		<path d="M42.4-970.4v13.5c0,4.5-2,6.4-6.7,6.4c-4.7,0-6.7-1.9-6.7-6.4V-971h-4.5c-0.4,0-0.6,0.2-0.6,0.6v13.7
			c0,7.5,4.8,10.1,11.7,10.1c7,0,11.7-2.6,11.7-10.1V-971H43C42.6-971,42.4-970.8,42.4-970.4z"/>
		<path d="M107.6-967.1c0.4,0,0.5-0.1,0.7-0.4l1.3-3.2c0.1-0.2,0-0.3-0.2-0.3H91.2c-1.7,0-2.3,0.5-2.3,1.7v20.9c0,1,0.5,1.4,1.8,1.4
			h16.9c0.4,0,0.5-0.1,0.7-0.4l1.3-3.2c0.1-0.2,0-0.3-0.2-0.3H93.9v-4.2c0-1.5,0.8-2.1,3-2.1h6.7c0.4,0,0.5-0.1,0.7-0.4l1.3-3.1
			c0.1-0.2,0-0.3-0.2-0.3H93.9v-6H107.6z"/>
		<path d="M75.7-959.7c2-1,2.8-3,2.8-5.3c0-5.3-4.3-6.1-8.8-6.1H59.5c-1.7,0-2.3,0.5-2.3,1.7v20.9c0,1,0.5,1.4,1.8,1.4h12.6
			c4.7,0,8.1-1.8,8.1-6.6C79.6-956.5,78.4-958.9,75.7-959.7z M62.1-967.1H70c2.7,0,3.4,1,3.4,3.1c0,2.1-0.7,3.1-3.4,3.1h-7.9V-967.1
			z M71-950.9h-8.9v-4.4c0-1.5,0.8-2.1,3-2.1H71c2.8,0,3.6,1.1,3.6,3.3C74.6-951.9,73.8-950.9,71-950.9z"/>
		<path d="M140.9-947.4l-5.4-9.2c2.7-0.7,4.8-2.5,4.8-7c0-5.8-3.6-7.4-9.6-7.4h-10.3c-1.7,0-2.3,0.5-2.3,1.7v21.7
			c0,0.4,0.2,0.6,0.6,0.6h4.4v-7c0-1.5,0.8-2.1,3-2.1h4.4l4.9,8.7c0.1,0.2,0.3,0.4,0.7,0.4h4.6C141-947,141-947.3,140.9-947.4z
			 M131.5-959.9h-8.4v-7.3h8.4c3.1,0,3.8,1.2,3.8,3.6C135.3-961.1,134.6-959.9,131.5-959.9z"/>
	</g>
	<g>
		<path d="M49.4-853.3v15.7c0,5.2-2.3,7.4-7.7,7.4c-5.4,0-7.7-2.2-7.7-7.4V-854h-5.2c-0.5,0-0.7,0.2-0.7,0.7v15.9
			c0,8.7,5.6,11.8,13.7,11.8c8.1,0,13.7-3.1,13.7-11.8V-854h-5.2C49.6-854,49.4-853.8,49.4-853.3z"/>
		<path d="M125.3-849.5c0.4,0,0.6-0.1,0.8-0.5l1.5-3.7c0.1-0.2,0-0.3-0.2-0.3h-21.1c-2,0-2.7,0.6-2.7,1.9v24.3
			c0,1.1,0.6,1.7,2.1,1.7h19.6c0.4,0,0.6-0.1,0.8-0.5l1.5-3.7c0.1-0.2,0-0.3-0.2-0.3h-18v-4.9c0-1.7,0.9-2.5,3.5-2.5h7.8
			c0.4,0,0.6-0.1,0.8-0.5l1.5-3.6c0.1-0.2,0-0.3-0.2-0.3h-13.3v-7H125.3z"/>
		<path d="M88.2-840.8c2.3-1.2,3.2-3.5,3.2-6.1c0-6.2-5-7.1-10.2-7.1H69.3c-2,0-2.7,0.6-2.7,1.9v24.3c0,1.1,0.6,1.7,2.1,1.7h14.6
			c5.5,0,9.5-2.1,9.5-7.7C92.7-837.1,91.3-840,88.2-840.8z M72.4-849.5h9.2c3.1,0,3.9,1.2,3.9,3.6c0,2.4-0.9,3.6-3.9,3.6h-9.2
			V-849.5z M82.7-830.6H72.4v-5.1c0-1.7,0.9-2.5,3.5-2.5h6.8c3.3,0,4.2,1.3,4.2,3.8C86.9-831.8,86-830.6,82.7-830.6z"/>
		<path d="M164.1-826.6l-6.3-10.7c3.1-0.8,5.6-2.9,5.6-8.1c0-6.8-4.2-8.6-11.1-8.6h-11.9c-2,0-2.7,0.6-2.7,1.9v25.3
			c0,0.5,0.2,0.7,0.7,0.7h5.1v-8.1c0-1.7,0.9-2.5,3.5-2.5h5.1l5.7,10.2c0.2,0.3,0.3,0.5,0.8,0.5h5.3
			C164.2-826.1,164.2-826.4,164.1-826.6z M153.1-841h-9.7v-8.5h9.7c3.6,0,4.4,1.4,4.4,4.2C157.6-842.4,156.8-841,153.1-841z"/>
	</g>
	<g>
		<path d="M56.4-724.2v17.9c0,6-2.6,8.4-8.8,8.4c-6.2,0-8.8-2.5-8.8-8.4V-725h-6c-0.5,0-0.8,0.3-0.8,0.8v18.2
			c0,10,6.4,13.5,15.6,13.5c9.2,0,15.6-3.5,15.6-13.5V-725h-6C56.7-725,56.4-724.7,56.4-724.2z"/>
		<path d="M142.9-719.8c0.5,0,0.7-0.2,0.9-0.5l1.7-4.3c0.1-0.3,0-0.4-0.3-0.4h-24c-2.3,0-3.1,0.7-3.1,2.2v27.8
			c0,1.3,0.7,1.9,2.4,1.9h22.4c0.5,0,0.7-0.2,0.9-0.5l1.7-4.3c0.1-0.3,0-0.4-0.3-0.4h-20.5v-5.6c0-2,1.1-2.8,4-2.8h8.9
			c0.5,0,0.7-0.2,0.9-0.5l1.7-4.1c0.1-0.3,0-0.4-0.3-0.4h-15.2v-8H142.9z"/>
		<path d="M100.6-709.9c2.6-1.4,3.7-3.9,3.7-7c0-7-5.7-8.1-11.7-8.1H79.1c-2.3,0-3.1,0.7-3.1,2.2v27.8c0,1.3,0.7,1.9,2.4,1.9h16.7
			c6.3,0,10.8-2.4,10.8-8.8C105.8-705.8,104.2-709,100.6-709.9z M82.6-719.9h10.5c3.5,0,4.5,1.3,4.5,4.1c0,2.8-1,4.1-4.5,4.1H82.6
			V-719.9z M94.4-698.3H82.6v-5.8c0-2,1.1-2.8,4-2.8h7.8c3.8,0,4.8,1.4,4.8,4.4C99.2-699.6,98.1-698.3,94.4-698.3z"/>
		<path d="M187.2-693.7l-7.1-12.3c3.6-0.9,6.4-3.3,6.4-9.2c0-7.7-4.8-9.8-12.7-9.8h-13.6c-2.3,0-3.1,0.7-3.1,2.2v28.9
			c0,0.5,0.3,0.8,0.8,0.8h5.8v-9.3c0-2,1.1-2.8,4-2.8h5.9l6.5,11.6c0.2,0.3,0.4,0.5,0.9,0.5h6.1
			C187.3-693.1,187.3-693.5,187.2-693.7z M174.8-710.2h-11.1v-9.7h11.1c4.1,0,5.1,1.6,5.1,4.8C179.8-711.8,178.9-710.2,174.8-710.2z
			"/>
	</g>
	<g>
		<g>
			<path d="M21.2-1251.7v6.7c0,2.2-1,3.2-3.3,3.2c-2.3,0-3.3-0.9-3.3-3.2v-7h-2.2c-0.2,0-0.3,0.1-0.3,0.3v6.8c0,3.8,2.4,5.1,5.9,5.1
				c3.5,0,5.9-1.3,5.9-5.1v-7.1h-2.2C21.3-1252,21.2-1251.9,21.2-1251.7z"/>
			<path d="M53.8-1250c0.2,0,0.3-0.1,0.3-0.2l0.7-1.6c0-0.1,0-0.1-0.1-0.1h-9.1c-0.8,0-1.2,0.3-1.2,0.8v10.5c0,0.5,0.2,0.7,0.9,0.7
				h8.4c0.2,0,0.3-0.1,0.3-0.2l0.7-1.6c0-0.1,0-0.1-0.1-0.1h-7.7v-2.1c0-0.7,0.4-1.1,1.5-1.1h3.4c0.2,0,0.3-0.1,0.3-0.2l0.6-1.5
				c0-0.1,0-0.1-0.1-0.1h-5.7v-3H53.8z"/>
			<path d="M37.8-1246.3c1-0.5,1.4-1.5,1.4-2.6c0-2.7-2.2-3-4.4-3h-5.1c-0.8,0-1.2,0.3-1.2,0.8v10.5c0,0.5,0.2,0.7,0.9,0.7h6.3
				c2.4,0,4.1-0.9,4.1-3.3C39.8-1244.8,39.2-1246,37.8-1246.3z M31.1-1250.1h4c1.3,0,1.7,0.5,1.7,1.5s-0.4,1.5-1.7,1.5h-4V-1250.1z
				 M35.5-1241.9h-4.4v-2.2c0-0.7,0.4-1.1,1.5-1.1h2.9c1.4,0,1.8,0.5,1.8,1.6C37.3-1242.4,36.9-1241.9,35.5-1241.9z"/>
			<path d="M70.5-1240.2l-2.7-4.6c1.3-0.3,2.4-1.2,2.4-3.5c0-2.9-1.8-3.7-4.8-3.7h-5.1c-0.8,0-1.2,0.3-1.2,0.8v10.9
				c0,0.2,0.1,0.3,0.3,0.3h2.2v-3.5c0-0.7,0.4-1.1,1.5-1.1h2.2l2.4,4.4c0.1,0.1,0.1,0.2,0.3,0.2h2.3
				C70.5-1240,70.5-1240.1,70.5-1240.2z M65.8-1246.4h-4.2v-3.6h4.2c1.6,0,1.9,0.6,1.9,1.8C67.7-1247,67.3-1246.4,65.8-1246.4z"/>
		</g>
	</g>
	<g>
		<path d="M56.4-588.2v17.9c0,6-2.6,8.4-8.8,8.4c-6.2,0-8.8-2.5-8.8-8.4V-589h-6c-0.5,0-0.8,0.3-0.8,0.8v18.2
			c0,10,6.4,13.5,15.6,13.5c9.2,0,15.6-3.5,15.6-13.5V-589h-6C56.7-589,56.4-588.7,56.4-588.2z"/>
		<path d="M142.9-583.8c0.5,0,0.7-0.2,0.9-0.5l1.7-4.3c0.1-0.3,0-0.4-0.3-0.4h-24c-2.3,0-3.1,0.7-3.1,2.2v27.8
			c0,1.3,0.7,1.9,2.4,1.9h22.4c0.5,0,0.7-0.2,0.9-0.5l1.7-4.3c0.1-0.3,0-0.4-0.3-0.4h-20.5v-5.6c0-2,1.1-2.8,4-2.8h8.9
			c0.5,0,0.7-0.2,0.9-0.5l1.7-4.1c0.1-0.3,0-0.4-0.3-0.4h-15.2v-8H142.9z"/>
		<path d="M100.6-573.9c2.6-1.4,3.7-3.9,3.7-7c0-7-5.7-8.1-11.7-8.1H79.1c-2.3,0-3.1,0.7-3.1,2.2v27.8c0,1.3,0.7,1.9,2.4,1.9h16.7
			c6.3,0,10.8-2.4,10.8-8.8C105.8-569.8,104.2-573,100.6-573.9z M82.6-583.9h10.5c3.5,0,4.5,1.3,4.5,4.1c0,2.8-1,4.1-4.5,4.1H82.6
			V-583.9z M94.4-562.3H82.6v-5.8c0-2,1.1-2.8,4-2.8h7.8c3.8,0,4.8,1.4,4.8,4.4C99.2-563.6,98.1-562.3,94.4-562.3z"/>
		<path d="M187.2-557.7l-7.1-12.3c3.6-0.9,6.4-3.3,6.4-9.2c0-7.7-4.8-9.8-12.7-9.8h-13.6c-2.3,0-3.1,0.7-3.1,2.2v28.9
			c0,0.5,0.3,0.8,0.8,0.8h5.8v-9.3c0-2,1.1-2.8,4-2.8h5.9l6.5,11.6c0.2,0.3,0.4,0.5,0.9,0.5h6.1
			C187.3-557.1,187.3-557.5,187.2-557.7z M174.8-574.2h-11.1v-9.7h11.1c4.1,0,5.1,1.6,5.1,4.8C179.8-575.8,178.9-574.2,174.8-574.2z
			"/>
	</g>
</g>
</svg>
