<?xml version="1.0" encoding="utf-8"?>
<!-- Generator: Adobe Illustrator 23.0.1, SVG Export Plug-In . SVG Version: 6.00 Build 0)  -->
<svg version="1.1" id="Layer_1" xmlns="http://www.w3.org/2000/svg" xmlns:xlink="http://www.w3.org/1999/xlink" x="0px" y="0px"
	 viewBox="0 0 200 200" style="enable-background:new 0 0 200 200;" xml:space="preserve">
<style type="text/css">
	.st0{fill:#1E54B7;}
	.st1{fill:#5B91F4;}
</style>
<g>
	<path class="st0" d="M80.41,139.77c0.54-1.74,0.91-3.12,1.39-4.47c2.03-5.67,4.17-11.31,6.13-17.01c1-2.9,2.83-4.58,5.79-5.37
		c5.97-1.57,11.89-3.3,17.83-4.99c2.5-0.71,4.66-0.28,6.68,1.45c5.02,4.3,10.09,8.54,15.18,12.77c2.34,1.95,3.33,4.25,2.74,7.34
		c-1.43,7.52-2.69,15.08-4.05,22.62c-0.52,2.86-2.22,4.72-5.04,5.48c-7.85,2.11-15.71,4.23-23.58,6.28
		c-2.85,0.74-5.16-0.26-6.99-2.53c-3.34-4.14-6.7-8.26-10.06-12.39c-1.42-1.75-2.96-3.42-4.22-5.27
		C81.38,142.45,80.95,140.97,80.41,139.77z"/>
	<path class="st0" d="M172.92,90.58c-0.33,5.56-0.62,10.93-0.97,16.28c-0.21,3.12-1.21,4.3-4.25,5.14
		c-6.92,1.92-13.85,3.79-20.77,5.72c-2.71,0.75-5.11,0.23-7.27-1.51c-5.23-4.2-10.44-8.42-15.69-12.6c-1.93-1.54-2.66-3.33-1.97-5.8
		c1.34-4.79,2.55-9.62,3.77-14.45c0.5-1.97,1.74-3.16,3.62-3.71c5.89-1.71,11.79-3.38,17.68-5.07c2.14-0.61,4.18-0.37,6.1,0.75
		c5.59,3.25,11.16,6.52,16.75,9.77C172.09,86.38,173.35,88.13,172.92,90.58z"/>
	<path class="st0" d="M32.7,126.75c0.53-1.34,0.89-2.63,1.51-3.78c2.86-5.36,5.8-10.68,8.7-16.02c1.08-2,2.68-3.33,4.87-3.95
		c5.53-1.57,11.05-3.14,16.58-4.72c2.09-0.6,3.76-0.16,5.29,1.51c3.18,3.46,6.48,6.8,9.78,10.14c1.57,1.58,1.97,3.32,1.18,5.37
		c-2.51,6.52-5,13.04-7.53,19.54c-0.97,2.49-2.81,4.02-5.4,4.72c-6.46,1.76-12.91,3.56-19.37,5.34c-3.14,0.87-4.42,0.37-6.14-2.36
		c-2.7-4.29-5.43-8.58-8.1-12.89C33.54,128.77,33.19,127.79,32.7,126.75z"/>
	<path class="st1" d="M89.13,106.59c-1.17-0.64-2.54-1.08-3.48-1.97c-3.56-3.35-6.97-6.87-10.48-10.27
		c-1.27-1.24-1.56-2.56-0.84-4.15c2.1-4.62,4.09-9.29,6.36-13.83c0.56-1.12,1.86-2.21,3.06-2.6c5.51-1.79,11.09-3.35,16.66-4.92
		c1.52-0.43,3.04-0.22,4.4,0.73c3.88,2.72,7.78,5.43,11.66,8.16c1.83,1.28,2.17,2.25,1.56,4.43c-1.36,4.84-2.76,9.67-4.09,14.51
		c-0.58,2.1-1.94,3.4-3.96,3.98c-6.3,1.82-12.61,3.59-18.92,5.35c-0.55,0.15-1.13,0.16-1.7,0.24
		C89.27,106.37,89.2,106.48,89.13,106.59z"/>
	<path class="st0" d="M132.42,43.44c0.95,0.27,1.97,0.42,2.85,0.84c4.19,2,8.34,4.06,12.49,6.13c1.57,0.78,2.4,1.65,1.93,3.77
		c-0.8,3.59-1.35,7.24-1.92,10.88c-0.28,1.79-1.26,2.9-2.9,3.38c-6.15,1.8-12.31,3.55-18.47,5.27c-1.65,0.46-3.23,0.05-4.65-0.89
		c-4.02-2.68-8.04-5.37-12.06-8.05c-1.15-0.77-1.55-1.73-1.05-3.08c1.33-3.64,2.53-7.32,3.98-10.91c0.37-0.91,1.35-1.9,2.26-2.19
		c5.41-1.74,10.89-3.3,16.35-4.9c0.36-0.11,0.76-0.07,1.14-0.1C132.39,43.54,132.41,43.49,132.42,43.44z"/>
	<path class="st0" d="M45.15,97.15c-0.77-0.49-1.72-0.84-2.29-1.51c-2.48-2.92-4.84-5.95-7.28-8.91c-0.81-0.98-0.72-1.99-0.15-2.93
		c2.71-4.41,5.39-8.83,8.27-13.13c0.66-0.98,1.97-1.74,3.14-2.12c4.78-1.54,9.62-2.89,14.45-4.3c1.51-0.44,2.87-0.28,4.14,0.84
		c2.58,2.28,5.23,4.5,7.9,6.69c1.12,0.91,1.33,1.92,0.74,3.17c-2.18,4.58-4.25,9.22-6.62,13.7c-0.65,1.24-2.04,2.49-3.36,2.91
		c-5.92,1.9-11.93,3.52-17.91,5.22c-0.27,0.08-0.57,0.07-0.85,0.1C45.26,96.99,45.21,97.07,45.15,97.15z"/>
	<path class="st0" d="M80.85,68.33c-0.58-0.26-1.5-0.49-2.18-1.01c-2.84-2.19-5.61-4.49-8.43-6.71c-1.01-0.79-1.14-1.63-0.52-2.74
		c1.81-3.26,3.47-6.62,5.4-9.8c0.61-1.01,1.81-1.94,2.94-2.31c4.63-1.53,9.31-2.93,14.03-4.16c1.12-0.29,2.63-0.05,3.68,0.49
		c3.06,1.57,5.99,3.4,8.96,5.16c1.55,0.92,1.7,1.36,1.06,3.05c-1.26,3.31-2.57,6.59-3.78,9.92c-0.64,1.74-1.88,2.76-3.56,3.26
		c-5.14,1.52-10.29,2.99-15.44,4.47C82.42,68.1,81.8,68.16,80.85,68.33z"/>
</g>
</svg>
